<svg width="24" height="25" viewBox="0 0 24 25" fill="none" xmlns="http://www.w3.org/2000/svg">
<path d="M12.2929 5.79289C12.6834 5.40237 13.3166 5.40237 13.7071 5.79289L19.7071 11.7929C19.8946 11.9804 20 12.2348 20 12.5C20 12.7652 19.8946 13.0196 19.7071 13.2071L13.7071 19.2071C13.3166 19.5976 12.6834 19.5976 12.2929 19.2071C11.9024 18.8166 11.9024 18.1834 12.2929 17.7929L16.5858 13.5L5 13.5C4.44772 13.5 4 13.0523 4 12.5C4 11.9477 4.44772 11.5 5 11.5L16.5858 11.5L12.2929 7.20711C11.9024 6.81658 11.9024 6.18342 12.2929 5.79289Z" fill="white"/>
</svg>
