<svg width="64" height="64" viewBox="0 0 64 64" fill="none" xmlns="http://www.w3.org/2000/svg">
<path d="M27.5 19C28.2824 19 28.9167 19.6343 28.9167 20.4167V21.8333H34.5833V20.4167C34.5833 19.6343 35.2176 19 36 19C36.7824 19 37.4167 19.6343 37.4167 20.4167V21.8333H41.6667C43.2315 21.8333 44.5 23.1019 44.5 24.6667V43.0833C44.5 44.6481 43.2315 45.9167 41.6667 45.9167H21.8333C20.2685 45.9167 19 44.6481 19 43.0833V24.6667C19 23.1019 20.2685 21.8333 21.8333 21.8333H26.0833V20.4167C26.0833 19.6343 26.7176 19 27.5 19ZM26.0833 24.6667H21.8333V28.9167H41.6667V24.6667H37.4167V26.0833C37.4167 26.8657 36.7824 27.5 36 27.5C35.2176 27.5 34.5833 26.8657 34.5833 26.0833V24.6667H28.9167V26.0833C28.9167 26.8657 28.2824 27.5 27.5 27.5C26.7176 27.5 26.0833 26.8657 26.0833 26.0833V24.6667ZM41.6667 31.75H21.8333V43.0833H41.6667V31.75Z" fill="#FFC107"/>
</svg>
