<svg viewBox="0 0 40 41" fill="none" xmlns="http://www.w3.org/2000/svg">
  <path
    d="M20 2.92188C10.2891 2.92188 2.42188 10.7891 2.42188 20.5C2.42188 30.2109 10.2891 38.0781 20 38.0781C29.7109 38.0781 37.5781 30.2109 37.5781 20.5C37.5781 10.7891 29.7109 2.92188 20 2.92188ZM25.0469 13.9453C25.0469 13.9453 23.1875 13.9297 22.7188 13.9297C22.0156 13.9297 21.5469 14.5391 21.5469 15.1562V17.7422H25.0469L24.6484 21.2656H21.5078V30.2656H17.9531V21.3125H14.9531V17.7031H18C18 17.7031 18 16.4375 18 14.2969C18 12.3984 20.1094 10.7266 21.5781 10.7266C21.7969 10.7266 25.0469 10.7578 25.0469 10.7578V13.9453Z"
    fill="currentColor" />
</svg>