<svg width="34" height="34" viewBox="0 0 34 34" fill="none" xmlns="http://www.w3.org/2000/svg">
<path d="M22.5194 10.4808C22.5324 10.4937 22.5483 10.5 22.566 10.5C22.5837 10.5 22.5997 10.4937 22.6127 10.4807L22.5194 10.4808ZM22.5194 10.4808C22.4935 10.4549 22.4936 10.4132 22.5194 10.3874L22.5194 10.3874L28.3874 4.51932C28.3874 4.5193 28.3874 4.51929 28.3874 4.51927C28.4131 4.49363 28.4549 4.49347 28.4808 4.51942L28.8343 4.16572M22.5194 10.4808L22.6128 10.4806L28.4806 4.61272C28.5065 4.58679 28.5064 4.54495 28.4807 4.51927L28.8343 4.16572M28.8343 4.16572C29.0552 4.38672 29.0552 4.74505 28.8343 4.96617M28.8343 4.16572C28.6132 3.94485 28.255 3.94467 28.0339 4.16572L28.8343 4.96617M28.8343 4.96617L22.9662 10.8343C22.8557 10.9448 22.7108 11 22.566 11L28.8343 4.96617Z" fill="#FECC01" stroke="#FECC01"/>
<path d="M30.3873 5.51935L24.5194 11.3873C24.4935 11.4132 24.4936 11.4551 24.5193 11.4808L30.3873 5.51935ZM30.3873 5.51935C30.413 5.49358 30.4549 5.49351 30.4808 5.5194C30.5064 5.5451 30.5064 5.58673 30.4807 5.61252L30.8342 5.96607M30.3873 5.51935L30.8342 5.96607M30.8342 5.96607L30.4807 5.61252L24.6127 11.4806L30.8342 5.96607Z" fill="#FECC01" stroke="#FECC01"/>
<path d="M25.0608 14.863L25.0608 14.863C24.009 15.9177 22.4012 16.1946 21.0587 15.5517L25.0608 14.863ZM25.0608 14.863L32.3828 7.5201C32.4094 7.49349 32.4522 7.49311 32.4793 7.5201C32.5069 7.54775 32.5069 7.59311 32.4792 7.62088L25.1572 14.9637C24.1558 15.9677 22.6679 16.2932 21.3538 15.8263L21.0357 15.7133L20.812 15.9661L18.9672 18.0504L18.6368 18.4238L19.0092 18.7553L28.4384 27.1482L28.4383 27.1483L28.4456 27.1545C28.5005 27.2015 28.548 27.2455 28.5918 27.2895L28.5923 27.29C29.5508 28.2514 29.5509 29.8177 28.592 30.7794C28.113 31.2597 27.4845 31.5 26.854 31.5C26.2236 31.5 25.5951 31.2598 25.1161 30.7794L25.1157 30.779C25.072 30.7353 25.0282 30.6876 24.9816 30.6328L24.9817 30.6328L24.975 30.6252L16.7807 21.3668L16.4063 20.9438L16.0319 21.3668L7.83763 30.6251L7.83756 30.6251L7.83139 30.6323C7.78458 30.6873 7.74066 30.7351 7.69652 30.7792L7.69611 30.7796C7.21748 31.2597 6.58894 31.4999 5.95862 31.4999H5.95858M25.0608 14.863L5.95858 31.4999M20.9783 15.5682L20.9783 15.5682L18.4904 18.3793L18.4855 18.3847L18.4846 18.3857C18.4846 18.3857 18.4846 18.3858 18.4845 18.3858L18.4843 18.3861L7.73267 30.5335L7.73151 30.5349L7.73134 30.535L7.72998 30.5367C7.68738 30.5869 7.64498 30.6335 7.60037 30.6783L7.60003 30.6786C6.69469 31.5865 5.22216 31.5865 4.31704 30.6787C3.87948 30.2399 3.63776 29.6543 3.63776 29.0344C3.63776 28.4144 3.87958 27.8289 4.31762 27.3896C4.36227 27.3447 4.40906 27.3021 4.45861 27.2598L4.46007 27.2585L4.46021 27.2584L4.46028 27.2584L4.46134 27.2574L4.46173 27.2571L11.1828 21.2747L11.5152 21.6482L11.1828 21.2747C11.2118 21.2489 11.2147 21.2036 11.1887 21.1742L11.1886 21.1741C11.1632 21.1454 11.1205 21.1433 11.0926 21.1681L11.0924 21.1683L4.37429 27.1481L4.36685 27.1547L4.36678 27.1546C4.31191 27.2016 4.26429 27.2457 4.22082 27.2894L4.22061 27.2896C3.75542 27.7561 3.5 28.3741 3.5 29.0344C3.5 29.6947 3.75537 30.3128 4.22051 30.7793L20.9783 15.5682ZM20.9783 15.5682C20.9988 15.5451 21.0312 15.5386 21.0586 15.5517L20.9783 15.5682ZM5.95858 31.4999C5.3281 31.4999 4.6997 31.2597 4.22055 30.7793L3.8665 31.1324C4.44336 31.7107 5.20089 31.9999 5.95862 31.9999C6.71603 31.9999 7.47375 31.7108 8.05018 31.1327C8.10481 31.078 8.15772 31.0203 8.21204 30.9565L16.0724 22.0754L16.0319 22.0296L16.4063 21.6982L16.7807 22.0296L16.7401 22.0754M5.95858 31.4999L16.7401 22.0754M16.7401 22.0754L24.6006 30.9566C24.6549 31.0205 24.7078 31.0782 24.7621 31.1325L16.7401 22.0754ZM28.354 27.2598L28.3523 27.2585L28.3521 27.2582L28.3508 27.2571L18.9186 18.8616L18.5441 18.5282L18.2118 18.9037L16.7924 20.5074L16.4991 20.8388L16.7924 21.1702L25.0795 30.5332L25.0808 30.5346L25.0824 30.5366C25.1252 30.5869 25.1678 30.6337 25.2121 30.6782C26.1177 31.5863 27.5902 31.5864 28.4956 30.6785L28.4956 30.6785C29.4001 29.7715 29.4 28.2973 28.4956 27.3902L28.4952 27.3899C28.4505 27.3451 28.404 27.3026 28.354 27.2598Z" fill="#FECC01" stroke="#FECC01"/>
<path d="M19.936 9.82963L19.936 9.82965C18.9198 10.829 18.5922 12.3112 19.0635 13.6196L19.1793 13.941L18.9219 14.1657L16.6357 16.1614L16.3069 16.4485L15.9781 16.1614L13.7809 14.2434L13.4855 13.9855L13.6655 13.6372C14.7008 11.6337 14.3249 9.20127 12.6779 7.5814C10.9366 5.86872 8.93904 4.68417 7.06912 4.22113C5.11516 3.7374 3.54749 4.08266 2.56174 5.05211C1.57857 6.01904 1.22947 7.55327 1.71961 9.46783C2.18932 11.3023 3.39174 13.2653 5.13352 14.9782L5.13356 14.9782C6.78237 16.6 9.26575 16.9739 11.3124 15.9509L11.6524 15.7809L11.9071 16.0632L11.5359 16.3982L11.9072 16.0632L11.9072 16.0633L11.9075 16.0636L11.9087 16.0649L11.9133 16.07L11.9313 16.0899L11.9995 16.1655L12.2433 16.4356L12.9849 17.2573L14.083 18.4742C14.0973 18.49 14.1183 18.5 14.1438 18.5C14.1648 18.5 14.1832 18.493 14.1979 18.4802C14.1979 18.4802 14.1979 18.4802 14.1979 18.4802L19.3374 13.9935C19.3614 13.9726 19.3657 13.943 19.3541 13.9192C18.702 12.5762 18.984 10.9689 20.0511 9.9195C20.0511 9.91949 20.0511 9.91949 20.0511 9.91948L27.4803 2.61266L27.4803 2.61261M19.936 9.82963L27.8309 2.1662C28.0564 2.38793 28.0564 2.7473 27.8309 2.96909L27.4803 2.61261M19.936 9.82963L27.3651 2.52278L27.0146 2.16624L27.3652 2.52268C27.3961 2.49241 27.4495 2.49239 27.4805 2.52283M19.936 9.82963L27.4805 2.52283M27.4803 2.61261C27.5066 2.58675 27.5065 2.5486 27.4805 2.52283M27.4803 2.61261L27.4805 2.52283M14.1504 18.3312L13.8209 17.966L11.7198 15.6378C11.7197 15.6378 11.7197 15.6378 11.7197 15.6378C11.6953 15.6108 11.6503 15.6029 11.6159 15.6238L11.6156 15.624C9.57009 16.8645 6.95135 16.5633 5.24848 14.8884C3.55634 13.2242 2.3455 11.2949 1.87022 9.43861L1.87022 9.43857C1.43018 7.71938 1.65137 6.15061 2.67683 5.14207L14.1504 18.3312ZM14.1504 18.3312L14.5209 18.0077M14.1504 18.3312L14.5209 18.0077M14.5209 18.0077L15.7661 16.9205L16.1976 16.5438M14.5209 18.0077L16.1976 16.5438M16.1976 16.5438L15.7661 16.1671M16.1976 16.5438L15.7661 16.1671M15.7661 16.1671L13.3248 14.036L15.7661 16.1671ZM12.8878 13.69L13.3114 13.9556C13.2958 13.9805 13.2989 14.0133 13.3247 14.0359L12.8878 13.69ZM12.8878 13.69L13.3114 13.9556C14.5781 11.9353 14.268 9.34838 12.5628 7.67128M12.8878 13.69L2.67689 5.14202C3.69926 4.13632 5.28597 3.92022 7.02754 4.3515C8.91034 4.81774 10.8704 6.00665 12.5628 7.67128M12.5628 7.67128L12.2122 8.02775L12.5628 7.67128Z" fill="#FECC01" stroke="#FECC01"/>
</svg>
