<svg viewBox="0 0 40 41" fill="none" xmlns="http://www.w3.org/2000/svg">
  <path
    d="M23.7344 12.9141H16.2734C14.1484 12.9141 12.4141 14.6406 12.4141 16.7734V24.2344C12.4141 26.3594 14.1406 28.0938 16.2734 28.0938H23.7344C25.8594 28.0938 27.5938 26.3672 27.5938 24.2344V16.7734C27.5859 14.6406 25.8594 12.9141 23.7344 12.9141ZM20 25.4922C17.25 25.4922 15.0078 23.25 15.0078 20.5C15.0078 17.75 17.25 15.5078 20 15.5078C22.75 15.5078 24.9922 17.75 24.9922 20.5C24.9922 23.25 22.75 25.4922 20 25.4922ZM25.2422 16.0625C24.7734 16.0625 24.3984 15.6875 24.3984 15.2188C24.3984 14.75 24.7734 14.375 25.2422 14.375C25.7109 14.375 26.0859 14.75 26.0859 15.2188C26.0859 15.6875 25.7109 16.0625 25.2422 16.0625Z"
    fill="currentColor" />
  <path
    d="M23.0344 20.5366C23.0545 18.8625 21.7137 17.4891 20.0395 17.469C18.3654 17.4489 16.992 18.7898 16.9719 20.4639C16.9518 22.138 18.2927 23.5114 19.9668 23.5315C21.6409 23.5516 23.0143 22.2107 23.0344 20.5366Z"
    fill="currentColor" />
  <path
    d="M20 2.92188C10.2891 2.92188 2.42188 10.7891 2.42188 20.5C2.42188 30.2109 10.2891 38.0781 20 38.0781C29.7109 38.0781 37.5781 30.2109 37.5781 20.5C37.5781 10.7891 29.7109 2.92188 20 2.92188ZM29.7656 24.2344C29.7656 27.5625 27.0625 30.2656 23.7344 30.2656H16.2734C12.9453 30.2656 10.2422 27.5625 10.2422 24.2344V16.7734C10.2422 13.4453 12.9453 10.7422 16.2734 10.7422H23.7344C27.0625 10.7422 29.7656 13.4453 29.7656 16.7734V24.2344Z"
    fill="currentColor" />
</svg>