<svg width="24" height="24" viewBox="0 0 24 24" fill="none" xmlns="http://www.w3.org/2000/svg">
<g id="kazakhstan">
<g clip-path="url(#clip0_1340_4532)">
<path id="Vector" d="M18.75 0H5.25C2.3505 0 0 2.3505 0 5.25V18.75C0 21.6495 2.3505 24 5.25 24H18.75C21.6495 24 24 21.6495 24 18.75V5.25C24 2.3505 21.6495 0 18.75 0Z" fill="#82C3D2"/>
<g id="Group">
<path id="Vector_2" d="M2.56117 22.394C2.50445 22.224 2.28423 21.7678 2.27692 21.7526C2.21655 21.6169 2.18477 21.4669 2.18477 21.3186C2.18477 21.1112 2.30509 20.9297 2.47745 20.877C2.61761 20.8337 2.76184 20.8571 2.87373 20.9398C2.98534 21.0222 3.04938 21.1492 3.04938 21.2876C3.04938 21.461 2.93819 21.5184 2.89038 21.5351C2.81636 21.5609 2.74558 21.546 2.72275 21.5171C2.70348 21.4926 2.70545 21.4256 2.77455 21.3169C2.81734 21.25 2.79775 21.1607 2.73063 21.118C2.66336 21.0757 2.57458 21.0955 2.53164 21.1622C2.34756 21.4507 2.44581 21.6313 2.49658 21.6958C2.599 21.825 2.78997 21.8694 2.97414 21.8094C2.91363 22.0661 2.85789 22.3087 3.09152 22.5424C3.11964 22.5705 3.15653 22.5846 3.19342 22.5846C3.23027 22.5846 3.26716 22.5705 3.29533 22.5424C3.35163 22.4861 3.35163 22.3949 3.29533 22.3386C3.17992 22.2232 3.19497 22.1284 3.25577 21.8711C3.29223 21.7169 3.33752 21.5247 3.33752 21.2877C3.33752 21.0619 3.22928 20.8468 3.04839 20.7113C3.22928 20.5758 3.33752 20.3607 3.33752 20.1349C3.33752 19.8979 3.29219 19.7057 3.25577 19.5514C3.19497 19.2941 3.17992 19.1993 3.29533 19.0839C3.35163 19.0276 3.35163 18.9364 3.29533 18.8801C3.23903 18.8239 3.14786 18.8239 3.09156 18.8801C2.85789 19.1138 2.91363 19.3564 2.97419 19.6131C2.79002 19.5529 2.59905 19.5973 2.49663 19.7268C2.44581 19.7912 2.34761 19.9719 2.53169 20.2604C2.57448 20.3274 2.66298 20.3471 2.73067 20.3046C2.7978 20.2618 2.81734 20.1726 2.77459 20.1056C2.7055 19.9969 2.70353 19.93 2.7228 19.9055C2.74558 19.8765 2.81636 19.8616 2.89042 19.8875C2.93828 19.9041 3.04942 19.9615 3.04942 20.1349C3.04942 20.2734 2.98539 20.4003 2.87378 20.4828C2.76189 20.5655 2.61709 20.5892 2.4775 20.5455C2.30509 20.4929 2.18481 20.3113 2.18481 20.1039C2.18481 19.9556 2.21659 19.8056 2.27697 19.6699L3.22066 17.5466C3.29819 17.3721 3.33761 17.1867 3.33761 16.9956C3.33761 16.7497 3.22581 16.5252 3.04989 16.3882C3.22581 16.2512 3.33761 16.0267 3.33761 15.7809C3.33761 15.5898 3.29819 15.4043 3.22066 15.2298L2.27697 13.1066C2.21659 12.9709 2.18481 12.8209 2.18481 12.6726C2.18481 12.4652 2.30514 12.2836 2.4775 12.231C2.61766 12.1876 2.76189 12.211 2.87378 12.2937C2.98539 12.3762 3.04942 12.5031 3.04942 12.6416C3.04942 12.8149 2.93823 12.8724 2.89042 12.889C2.81641 12.9152 2.74563 12.9 2.7228 12.871C2.70353 12.8465 2.7055 12.7796 2.77459 12.6709C2.81739 12.6039 2.7978 12.5147 2.73067 12.4719C2.66341 12.4297 2.57463 12.4494 2.53169 12.5161C2.34761 12.8046 2.44586 12.9853 2.49663 13.0497C2.59905 13.1789 2.79002 13.2233 2.97419 13.1634C2.91367 13.4201 2.85794 13.6626 3.09156 13.8963C3.11969 13.9245 3.15658 13.9385 3.19347 13.9385C3.23031 13.9385 3.2672 13.9245 3.29538 13.8963C3.35167 13.84 3.35167 13.7488 3.29538 13.6925C3.17997 13.5771 3.19502 13.4823 3.25581 13.2251C3.29228 13.0708 3.33756 12.8786 3.33756 12.6416C3.33756 12.4839 3.28211 12.3331 3.18883 12.2093H3.19347C3.27311 12.2093 3.33756 12.1448 3.33756 12.0652C3.33756 11.9855 3.27311 11.9211 3.19347 11.9211H3.18883C3.28211 11.7972 3.33756 11.6465 3.33756 11.4888C3.33756 11.2518 3.29223 11.0596 3.25581 10.9053C3.19502 10.6481 3.17997 10.5532 3.29538 10.4378C3.35167 10.3815 3.35167 10.2903 3.29538 10.2341C3.23908 10.1778 3.14791 10.1778 3.09161 10.2341C2.85794 10.4677 2.91367 10.7104 2.97423 10.967C2.79006 10.9071 2.59909 10.9515 2.49667 11.0807C2.44586 11.1451 2.34766 11.3258 2.53173 11.6143C2.57453 11.6813 2.66303 11.7007 2.73072 11.6585C2.79784 11.6157 2.81739 11.5265 2.77464 11.4595C2.70555 11.3509 2.70358 11.2839 2.72284 11.2594C2.74563 11.2304 2.81641 11.2155 2.89047 11.2414C2.93833 11.258 3.04947 11.3154 3.04947 11.4888C3.04947 11.6273 2.98544 11.7542 2.87383 11.8367C2.76194 11.9194 2.61714 11.9428 2.47755 11.8994C2.30514 11.8468 2.18486 11.6652 2.18486 11.4578C2.18486 11.3095 2.21664 11.1595 2.27702 11.0238L3.2207 8.9006C3.29823 8.72608 3.33766 8.54065 3.33766 8.34954C3.33766 8.10368 3.22586 7.87915 3.04994 7.74218C3.22586 7.60516 3.33766 7.38063 3.33766 7.13482C3.33766 6.94371 3.29823 6.75822 3.2207 6.58376L2.27688 4.46032C2.2165 4.32466 2.18472 4.17466 2.18472 4.0263C2.18472 3.81888 2.30505 3.63733 2.47741 3.58469C2.61756 3.54133 2.7618 3.56472 2.87369 3.64746C2.9853 3.72991 3.04933 3.85685 3.04933 3.99532C3.04933 4.16871 2.93814 4.22613 2.89033 4.24272C2.81631 4.2686 2.74553 4.25341 2.7227 4.22472C2.70344 4.20026 2.70541 4.13327 2.7745 4.02462C2.8173 3.95763 2.7977 3.86843 2.73058 3.82563C2.66331 3.7834 2.57453 3.80285 2.53159 3.86983C2.34752 4.1583 2.44577 4.33901 2.49653 4.40346C2.59895 4.53265 2.78992 4.57704 2.97409 4.51708C2.91358 4.77377 2.85784 5.0164 3.09147 5.25007C3.11959 5.27819 3.15648 5.2923 3.19338 5.2923C3.23022 5.2923 3.26711 5.27824 3.29528 5.25007C3.35158 5.19377 3.35158 5.1026 3.29528 5.0463C3.17988 4.9309 3.19492 4.83607 3.25572 4.57882C3.29219 4.4246 3.33747 4.23236 3.33747 3.99536C3.33747 3.83763 3.28202 3.68688 3.18873 3.56304H3.19338C3.27302 3.56304 3.33747 3.49858 3.33747 3.41894C3.33747 3.3393 3.27302 3.27485 3.19338 3.27485H3.18873C3.28202 3.15101 3.33747 3.00026 3.33747 2.84257C3.33747 2.60557 3.29214 2.41333 3.25572 2.25911C3.19492 2.00186 3.17988 1.90704 3.29528 1.79163C3.35158 1.73533 3.35158 1.64416 3.29528 1.58786C3.23898 1.53157 3.14781 1.53157 3.09152 1.58786C2.85784 1.82154 2.91358 2.06411 2.97414 2.32085C2.78997 2.26066 2.599 2.30529 2.49658 2.43447C2.44577 2.49893 2.34756 2.67963 2.53164 2.9681C2.57444 3.03508 2.66294 3.05477 2.73063 3.0123C2.79775 2.96951 2.8173 2.8803 2.77455 2.81332C2.70545 2.70466 2.70348 2.63768 2.72275 2.61321C2.74553 2.58424 2.81631 2.56901 2.89038 2.59521C2.93823 2.6118 3.04938 2.66922 3.04938 2.84261C3.04938 2.98108 2.98534 3.10802 2.87373 3.19047C2.76184 3.27321 2.61705 3.2966 2.47745 3.25324C2.30505 3.2006 2.18477 3.01905 2.18477 2.81163C2.18477 2.66332 2.21655 2.51332 2.27495 2.38188C2.28423 2.36247 2.5045 1.90624 2.56117 1.73622C2.67334 1.3999 2.55934 1.23072 2.48153 1.16008C2.37738 1.06526 2.22527 1.04158 2.09425 1.09901C2.07438 1.10782 2.05792 1.12061 2.04063 1.13252C2.03209 1.12666 2.0237 1.12052 2.01508 1.1148C1.82725 1.26194 1.64992 1.42174 1.48389 1.59265C1.49139 1.63685 1.50278 1.68429 1.52008 1.73622C1.5768 1.90619 1.79702 2.36243 1.80433 2.37766C1.8647 2.51332 1.89648 2.66332 1.89648 2.81168C1.89648 3.0191 1.77616 3.20065 1.6038 3.25329C1.46378 3.29665 1.31941 3.27354 1.20752 3.19052C1.09591 3.10807 1.03188 2.98113 1.03188 2.84266C1.03188 2.66927 1.14306 2.61185 1.19088 2.59526C1.26517 2.5691 1.33553 2.58429 1.3585 2.61326C1.37777 2.63772 1.3758 2.70471 1.3067 2.81336C1.26391 2.88035 1.2835 2.96955 1.35063 3.01235C1.41831 3.05515 1.50709 3.03513 1.54961 2.96815C1.73369 2.67968 1.63544 2.49897 1.58467 2.43452C1.48225 2.30533 1.29128 2.26071 1.10711 2.3209C1.13622 2.19743 1.16388 2.07724 1.15909 1.95977C1.01941 2.13321 0.890406 2.31565 0.773359 2.50619C0.75625 2.60679 0.743688 2.71844 0.743688 2.84261C0.743688 3.0003 0.799094 3.1511 0.892422 3.2749H0.887781C0.808141 3.2749 0.743688 3.33935 0.743688 3.41899C0.743688 3.49863 0.808141 3.56308 0.887781 3.56308H0.892422C0.799141 3.68693 0.743688 3.83768 0.743688 3.99541C0.743688 4.23241 0.789016 4.42465 0.825438 4.57886C0.886234 4.83611 0.901281 4.93094 0.785875 5.04635C0.729578 5.10265 0.729578 5.19382 0.785875 5.25011C0.814 5.27824 0.850891 5.29235 0.887781 5.29235C0.924672 5.29235 0.961516 5.27829 0.989688 5.25011C1.22336 5.01644 1.16763 4.77382 1.10711 4.51713C1.29128 4.57708 1.48225 4.53269 1.58467 4.40351C1.63548 4.33905 1.73369 4.15835 1.54961 3.86988C1.50695 3.8029 1.41789 3.78293 1.35063 3.82568C1.2835 3.86847 1.26395 3.95768 1.3067 4.02466C1.3758 4.13332 1.37777 4.2003 1.3585 4.22477C1.33558 4.25351 1.26522 4.26869 1.19088 4.24277C1.14302 4.22618 1.03188 4.16876 1.03188 3.99536C1.03188 3.8569 1.09591 3.72996 1.20752 3.64751C1.31941 3.56477 1.46406 3.5411 1.6038 3.58474C1.7762 3.63738 1.89648 3.81888 1.89648 4.02635C1.89648 4.17466 1.86466 4.32471 1.80433 4.46036L0.860641 6.58357C0.783109 6.75808 0.743688 6.94352 0.743688 7.13463C0.743688 7.38049 0.855484 7.60502 1.03141 7.74199C0.855484 7.87901 0.743688 8.10349 0.743688 8.34935C0.743688 8.54046 0.783109 8.72594 0.860641 8.90041L1.80433 11.0237C1.8647 11.1593 1.89648 11.3093 1.89648 11.4576C1.89648 11.6651 1.77616 11.8466 1.6038 11.8992C1.46378 11.9429 1.31941 11.9195 1.20752 11.8365C1.09591 11.754 1.03188 11.6271 1.03188 11.4886C1.03188 11.3152 1.14306 11.2578 1.19088 11.2412C1.26517 11.2153 1.33553 11.2302 1.3585 11.2592C1.37777 11.2837 1.3758 11.3507 1.3067 11.4593C1.26391 11.5263 1.2835 11.6155 1.35063 11.6583C1.41831 11.7011 1.50709 11.6814 1.54961 11.6141C1.73369 11.3256 1.63544 11.1449 1.58467 11.0805C1.48225 10.9513 1.29128 10.9069 1.10711 10.9669C1.16763 10.7102 1.22336 10.4675 0.989688 10.2339C0.933391 10.1776 0.842219 10.1776 0.785922 10.2339C0.729625 10.2902 0.729625 10.3813 0.785922 10.4376C0.901328 10.553 0.886281 10.6479 0.825484 10.9051C0.789016 11.0593 0.743734 11.2516 0.743734 11.4886C0.743734 11.6463 0.799141 11.7971 0.892469 11.9209H0.887828C0.808188 11.9209 0.743734 11.9853 0.743734 12.065C0.743734 12.1446 0.808188 12.2091 0.887828 12.2091H0.892469C0.799188 12.3329 0.743734 12.4837 0.743734 12.6414C0.743734 12.8784 0.789063 13.0706 0.825484 13.2249C0.886281 13.4821 0.901328 13.5769 0.785922 13.6924C0.729625 13.7486 0.729625 13.8398 0.785922 13.8961C0.814047 13.9243 0.850938 13.9383 0.887828 13.9383C0.924719 13.9383 0.961563 13.9243 0.989734 13.8961C1.22341 13.6624 1.16767 13.4198 1.10716 13.1632C1.29133 13.2231 1.4823 13.1787 1.58472 13.0496C1.63553 12.9851 1.73373 12.8044 1.54966 12.5159C1.507 12.4489 1.41794 12.429 1.35067 12.4717C1.28355 12.5145 1.264 12.6037 1.30675 12.6707C1.37584 12.7794 1.37781 12.8464 1.35855 12.8708C1.33563 12.8998 1.26527 12.915 1.19092 12.8888C1.14306 12.8722 1.03192 12.8148 1.03192 12.6414C1.03192 12.5029 1.09595 12.376 1.20756 12.2936C1.31945 12.2108 1.46411 12.1871 1.60384 12.2308C1.77625 12.2834 1.89653 12.465 1.89653 12.6724C1.89653 12.8207 1.8647 12.9708 1.80438 13.1064L0.860688 15.2296C0.783156 15.4041 0.743734 15.5896 0.743734 15.7807C0.743734 16.0265 0.855531 16.2511 1.03145 16.388C0.855531 16.5251 0.743734 16.7495 0.743734 16.9954C0.743734 17.1865 0.783156 17.372 0.860688 17.5465L1.80438 19.6697C1.86475 19.8054 1.89653 19.9554 1.89653 20.1037C1.89653 20.3111 1.7762 20.4927 1.60384 20.5453C1.46383 20.589 1.31945 20.5653 1.20756 20.4826C1.09595 20.4001 1.03192 20.2732 1.03192 20.1347C1.03192 19.9614 1.14311 19.9039 1.19092 19.8873C1.26522 19.8614 1.33558 19.8763 1.35855 19.9053C1.37781 19.9298 1.37584 19.9968 1.30675 20.1054C1.26395 20.1724 1.28355 20.2616 1.35067 20.3044C1.41836 20.3472 1.50714 20.3275 1.54966 20.2602C1.73373 19.9717 1.63548 19.791 1.58472 19.7266C1.4823 19.5971 1.29133 19.5528 1.10716 19.6129C1.16767 19.3562 1.22341 19.1136 0.989734 18.88C0.933438 18.8237 0.842266 18.8237 0.785969 18.88C0.729672 18.9363 0.729672 19.0274 0.785969 19.0837C0.901375 19.1991 0.886328 19.294 0.825531 19.5512C0.789063 19.7054 0.743781 19.8977 0.743781 20.1347C0.743781 20.3605 0.852016 20.5756 1.03291 20.7111C0.852016 20.8466 0.743781 21.0617 0.743781 21.2875C0.743781 21.3471 0.746641 21.4038 0.751516 21.4579C0.872266 21.658 1.00614 21.8493 1.15169 22.0309C1.14194 21.9581 1.12483 21.8843 1.10716 21.8093C1.29133 21.8692 1.4823 21.8248 1.58472 21.6956C1.63553 21.6312 1.73373 21.4505 1.54966 21.162C1.507 21.095 1.41794 21.0754 1.35067 21.1178C1.28355 21.1606 1.264 21.2498 1.30675 21.3168C1.37584 21.4254 1.37781 21.4924 1.35855 21.5169C1.33563 21.5459 1.26527 21.5608 1.19092 21.5349C1.14306 21.5183 1.03192 21.4609 1.03192 21.2875C1.03192 21.149 1.09595 21.0221 1.20756 20.9396C1.31945 20.8569 1.46411 20.8335 1.60384 20.8769C1.77625 20.9295 1.89653 21.1111 1.89653 21.3185C1.89653 21.4668 1.8647 21.6169 1.80634 21.7482C1.79706 21.7676 1.57684 22.2239 1.52013 22.3939C1.51572 22.4071 1.51225 22.4197 1.5085 22.4324C1.59048 22.5156 1.67519 22.5961 1.76252 22.6738C1.75891 22.6282 1.76641 22.566 1.79341 22.4851C1.83067 22.3736 1.96553 22.0836 2.04063 21.9262C2.11408 22.0799 2.25034 22.3729 2.28789 22.4851C2.33913 22.6387 2.32122 22.7263 2.28747 22.7569C2.26483 22.7775 2.23159 22.7766 2.21078 22.7674C2.18477 22.7558 2.18477 22.7375 2.18477 22.7285C2.18477 22.6489 2.12031 22.5844 2.04067 22.5844C1.96103 22.5844 1.89658 22.6489 1.89658 22.7285C1.89658 22.7375 1.89658 22.7558 1.87061 22.7673C1.99394 22.8711 2.12209 22.9694 2.25475 23.0617C2.33763 23.0587 2.41834 23.0275 2.48158 22.97C2.55934 22.8995 2.6733 22.7304 2.56117 22.394ZM1.79336 1.64496C1.74213 1.4913 1.75998 1.40374 1.79378 1.37308C1.81586 1.35227 1.84938 1.35311 1.87047 1.36268C1.89648 1.37421 1.89648 1.39249 1.89648 1.40154C1.89648 1.48118 1.96094 1.54563 2.04058 1.54563C2.12022 1.54563 2.18467 1.48118 2.18467 1.40154C2.18467 1.39254 2.18467 1.37426 2.21069 1.36268C2.2315 1.35311 2.26473 1.35227 2.28738 1.37308C2.32117 1.40379 2.33903 1.4913 2.2878 1.64496C2.25053 1.75643 2.11567 2.0464 2.04058 2.20385C1.96717 2.0501 1.83091 1.75718 1.79336 1.64496ZM2.18425 3.41894C2.12969 3.46141 2.08136 3.51218 2.04063 3.5696C1.99989 3.51218 1.95156 3.46141 1.897 3.41894C1.95156 3.37647 1.99989 3.32571 2.04063 3.26829C2.08131 3.32571 2.12969 3.37647 2.18425 3.41894ZM1.12408 6.70066L2.04063 4.63849L2.95717 6.70066C3.01755 6.83632 3.04933 6.98632 3.04933 7.13468C3.04933 7.3421 2.929 7.52365 2.75664 7.57629C2.61677 7.61993 2.47211 7.59626 2.36036 7.51352C2.24875 7.43107 2.18472 7.30413 2.18472 7.16566C2.18472 6.99227 2.29591 6.9349 2.34372 6.91826C2.41788 6.89238 2.48852 6.90729 2.51134 6.93626C2.53061 6.96072 2.52864 7.02771 2.45955 7.13637C2.41675 7.20335 2.43634 7.29255 2.50347 7.33535C2.57116 7.37787 2.65994 7.35841 2.70245 7.29115C2.88653 7.00268 2.78828 6.82197 2.73747 6.75752C2.63303 6.6258 2.43691 6.58076 2.24917 6.64605C2.22775 6.65346 2.20614 6.66265 2.18472 6.67352V6.30902C2.18477 6.30911 2.18495 6.30926 2.18495 6.30926C2.18936 6.3851 2.25213 6.44505 2.32881 6.44505C2.40845 6.44505 2.47291 6.3806 2.47291 6.30096C2.47291 6.20697 2.40719 6.04394 2.18472 5.99341V5.72458C2.18472 5.64494 2.12027 5.58049 2.04063 5.58049C1.96098 5.58049 1.89653 5.64494 1.89653 5.72458V5.99341C1.67406 6.04394 1.60834 6.20697 1.60834 6.30096C1.60834 6.3806 1.67266 6.44983 1.75216 6.44983C1.8318 6.44983 1.89597 6.39016 1.89597 6.31052C1.89602 6.31024 1.89644 6.30996 1.89653 6.30968V6.67347C1.87511 6.6626 1.8535 6.65341 1.83208 6.64601C1.64434 6.58071 1.44803 6.62576 1.34378 6.75747C1.29297 6.82193 1.19477 7.00263 1.37884 7.2911C1.42164 7.35808 1.51056 7.37749 1.57783 7.3353C1.64495 7.29251 1.6645 7.2033 1.62175 7.13632C1.55266 7.02766 1.55069 6.96068 1.56995 6.93621C1.59259 6.90724 1.66328 6.89229 1.73758 6.91821C1.78544 6.9348 1.89658 6.99223 1.89658 7.16562C1.89658 7.30408 1.83255 7.43102 1.72094 7.51347C1.60905 7.59621 1.46453 7.61988 1.32466 7.57624C1.15225 7.5236 1.03197 7.34205 1.03197 7.13463C1.03188 6.98632 1.0637 6.83632 1.12408 6.70066ZM2.18566 7.74204C2.12875 7.78469 2.08202 7.83691 2.04063 7.89316C1.99923 7.83691 1.95245 7.78465 1.89559 7.74204C1.9525 7.69938 1.99923 7.64716 2.04063 7.59091C2.08197 7.64712 2.12875 7.69938 2.18566 7.74204ZM1.12408 8.78337C1.0637 8.64771 1.03192 8.49771 1.03192 8.34935C1.03192 8.14193 1.15225 7.96038 1.32461 7.90774C1.46463 7.86443 1.60914 7.88777 1.72089 7.97051C1.8325 8.05296 1.89653 8.1799 1.89653 8.31837C1.89653 8.49176 1.78534 8.54918 1.73753 8.56577C1.66323 8.59193 1.59259 8.57674 1.56991 8.54777C1.55064 8.5233 1.55261 8.45632 1.6217 8.34766C1.6645 8.28068 1.64491 8.19147 1.57778 8.14868C1.51052 8.10616 1.42173 8.1259 1.3788 8.19288C1.19472 8.4814 1.29297 8.66205 1.34373 8.72651C1.44803 8.85822 1.64434 8.90327 1.83203 8.83798C1.85345 8.83057 1.87506 8.82138 1.89648 8.81051V9.17496L1.8962 9.17458C1.89184 9.09888 1.82908 9.03893 1.75239 9.03893C1.67275 9.03893 1.6083 9.10338 1.6083 9.18302C1.6083 9.27705 1.67402 9.44004 1.89648 9.49057V9.7594C1.89648 9.83904 1.96094 9.90349 2.04058 9.90349C2.12022 9.90349 2.18467 9.83904 2.18467 9.7594V9.49057C2.40714 9.44004 2.47286 9.27701 2.47286 9.18302C2.47286 9.10338 2.40855 9.03415 2.32905 9.03415C2.24941 9.03415 2.18523 9.09382 2.18523 9.17346C2.18519 9.17374 2.18477 9.17402 2.18477 9.17402L2.18472 8.81051C2.20614 8.82138 2.22775 8.83057 2.24917 8.83798C2.43691 8.90327 2.63308 8.85822 2.73747 8.72651C2.78828 8.66205 2.88648 8.48135 2.70245 8.19288C2.65966 8.12562 2.57073 8.10593 2.50347 8.14868C2.43634 8.19147 2.4168 8.28068 2.45955 8.34766C2.52864 8.45632 2.53061 8.5233 2.51134 8.54777C2.48856 8.57674 2.41792 8.59197 2.34372 8.56577C2.29586 8.54918 2.18472 8.49176 2.18472 8.31837C2.18472 8.1799 2.24875 8.05296 2.36036 7.97051C2.47225 7.88777 2.61705 7.86443 2.75664 7.90774C2.92905 7.96038 3.04933 8.14193 3.04933 8.34935C3.04933 8.49766 3.01755 8.64771 2.95717 8.78337L2.04063 10.8455L1.12408 8.78337ZM2.18425 12.0651C2.12969 12.1076 2.08136 12.1583 2.04063 12.2157C1.99989 12.1583 1.95156 12.1076 1.897 12.0651C1.95156 12.0226 1.99989 11.9719 2.04063 11.9144C2.08131 11.9719 2.12969 12.0226 2.18425 12.0651ZM1.12408 15.3468L2.04063 13.2847L2.95717 15.3468C3.01755 15.4825 3.04933 15.6325 3.04933 15.7808C3.04933 15.9882 2.929 16.1698 2.75664 16.2224C2.61677 16.2661 2.47211 16.2424 2.36036 16.1597C2.24875 16.0772 2.18472 15.9503 2.18472 15.8118C2.18472 15.6384 2.29591 15.581 2.34372 15.5644C2.41788 15.5385 2.48852 15.5534 2.51134 15.5824C2.53061 15.6069 2.52864 15.6739 2.45955 15.7825C2.41675 15.8495 2.43634 15.9387 2.50347 15.9815C2.57116 16.0243 2.65994 16.0046 2.70245 15.9373C2.88653 15.6488 2.78828 15.4681 2.73747 15.4037C2.63303 15.2719 2.43691 15.2272 2.24917 15.2922C2.22775 15.2996 2.20614 15.3088 2.18472 15.3197V14.9552L2.185 14.9555C2.18936 15.0312 2.25213 15.0912 2.32881 15.0912C2.40845 15.0912 2.47291 15.0267 2.47291 14.9471C2.47291 14.8531 2.40719 14.6901 2.18472 14.6396V14.3707C2.18472 14.291 2.12027 14.2266 2.04063 14.2266C1.96098 14.2266 1.89653 14.291 1.89653 14.3707V14.6396C1.67406 14.6901 1.60834 14.8531 1.60834 14.9471C1.60834 15.0267 1.67266 15.096 1.75216 15.096C1.8318 15.096 1.89597 15.0363 1.89597 14.9567C1.89602 14.9564 1.89644 14.9561 1.89644 14.9561L1.89653 15.3196C1.87511 15.3087 1.8535 15.2996 1.83208 15.2921C1.64434 15.2271 1.44803 15.2719 1.34378 15.4036C1.29297 15.4681 1.19477 15.6488 1.37884 15.9372C1.42164 16.0042 1.51056 16.0236 1.57783 15.9814C1.64495 15.9386 1.6645 15.8494 1.62175 15.7825C1.55266 15.6738 1.55069 15.6068 1.56995 15.5824C1.59259 15.5534 1.66328 15.5384 1.73758 15.5644C1.78544 15.5809 1.89658 15.6384 1.89658 15.8118C1.89658 15.9502 1.83255 16.0772 1.72094 16.1596C1.60905 16.2424 1.46453 16.266 1.32466 16.2224C1.15225 16.1697 1.03197 15.9882 1.03197 15.7808C1.03188 15.6325 1.0637 15.4825 1.12408 15.3468ZM2.18566 16.3882C2.12875 16.4308 2.08202 16.4831 2.04063 16.5393C1.99923 16.4831 1.95245 16.4308 1.89559 16.3882C1.9525 16.3455 1.99923 16.2933 2.04063 16.2371C2.08197 16.2933 2.12875 16.3455 2.18566 16.3882ZM1.12408 17.4296C1.0637 17.2939 1.03192 17.1439 1.03192 16.9955C1.03192 16.7881 1.15225 16.6066 1.32461 16.5539C1.46463 16.5106 1.60914 16.534 1.72089 16.6167C1.8325 16.6991 1.89653 16.8261 1.89653 16.9646C1.89653 17.1379 1.78534 17.1954 1.73753 17.212C1.66323 17.2378 1.59259 17.2229 1.56991 17.194C1.55064 17.1695 1.55261 17.1025 1.6217 16.9939C1.6645 16.9269 1.64491 16.8377 1.57778 16.7949C1.51052 16.7526 1.42173 16.7724 1.3788 16.8391C1.19472 17.1276 1.29297 17.3082 1.34373 17.3727C1.44803 17.5044 1.64434 17.5497 1.83203 17.4842C1.85345 17.4767 1.87506 17.4676 1.89648 17.4567V17.8211C1.89644 17.8211 1.89625 17.8209 1.89625 17.8209C1.89184 17.7451 1.82908 17.6851 1.75239 17.6851C1.67275 17.6851 1.6083 17.7496 1.6083 17.8292C1.6083 17.9232 1.67402 18.0862 1.89648 18.1368V18.4056C1.89648 18.4853 1.96094 18.5497 2.04058 18.5497C2.12022 18.5497 2.18467 18.4853 2.18467 18.4056V18.1368C2.40714 18.0862 2.47286 17.9232 2.47286 17.8292C2.47286 17.7496 2.40855 17.6803 2.32905 17.6803C2.24941 17.6803 2.18523 17.74 2.18523 17.8196C2.18519 17.8199 2.18477 17.8202 2.18467 17.8205V17.4567C2.20609 17.4676 2.2277 17.4768 2.24913 17.4842C2.43686 17.5497 2.63303 17.5044 2.73742 17.3727C2.78823 17.3082 2.88644 17.1275 2.70241 16.8391C2.65961 16.7721 2.57069 16.7524 2.50342 16.7949C2.4363 16.8377 2.41675 16.9269 2.4595 16.9939C2.52859 17.1025 2.53056 17.1695 2.5113 17.194C2.48852 17.2229 2.41788 17.2379 2.34367 17.212C2.29581 17.1954 2.18467 17.1379 2.18467 16.9646C2.18467 16.8261 2.2487 16.6991 2.36031 16.6167C2.4722 16.534 2.617 16.5103 2.75659 16.5539C2.929 16.6066 3.04928 16.7881 3.04928 16.9955C3.04928 17.1439 3.0175 17.2939 2.95713 17.4296L2.04058 19.4917L1.12408 17.4296ZM2.04063 20.8619C1.99989 20.8045 1.95156 20.7537 1.897 20.7112C1.95156 20.6688 1.99989 20.618 2.04063 20.5606C2.08136 20.618 2.12969 20.6688 2.18425 20.7112C2.12969 20.7537 2.08131 20.8045 2.04063 20.8619Z" fill="#FFE15A"/>
<path id="Vector_3" d="M12.6702 13.4165C14.181 13.4165 15.4058 12.1918 15.4058 10.6809C15.4058 9.17006 14.181 7.94528 12.6702 7.94528C11.1594 7.94528 9.93457 9.17006 9.93457 10.6809C9.93457 12.1918 11.1594 13.4165 12.6702 13.4165Z" fill="#FFE15A"/>
<path id="Vector_4" d="M12.8752 7.19262C12.8752 7.30592 12.7833 7.39779 12.67 7.39779C12.5567 7.39779 12.4648 7.30592 12.4648 7.19262C12.4648 7.07932 12.67 6.57706 12.67 6.57706C12.67 6.57706 12.8752 7.07932 12.8752 7.19262Z" fill="#FFE15A"/>
<path id="Vector_5" d="M12.4648 14.1688C12.4648 14.0555 12.5567 13.9637 12.67 13.9637C12.7834 13.9637 12.8752 14.0555 12.8752 14.1688C12.8752 14.2822 12.67 14.7844 12.67 14.7844C12.67 14.7844 12.4648 14.2822 12.4648 14.1688Z" fill="#FFE15A"/>
<path id="Vector_6" d="M16.1583 10.8859C16.045 10.8859 15.9531 10.7941 15.9531 10.6808C15.9531 10.5675 16.045 10.4756 16.1583 10.4756C16.2716 10.4756 16.7739 10.6808 16.7739 10.6808C16.7739 10.6808 16.2716 10.8859 16.1583 10.8859Z" fill="#FFE15A"/>
<path id="Vector_7" d="M9.18197 10.4756C9.29527 10.4756 9.38714 10.5674 9.38714 10.6807C9.38714 10.794 9.29527 10.8859 9.18197 10.8859C9.06867 10.8859 8.56641 10.6807 8.56641 10.6807C8.56641 10.6807 9.06867 10.4756 9.18197 10.4756Z" fill="#FFE15A"/>
<path id="Vector_8" d="M15.2814 8.35937C15.2013 8.43947 15.0713 8.43947 14.9912 8.35937C14.9111 8.27926 14.9111 8.14932 14.9912 8.06921C15.0713 7.98905 15.5716 7.77905 15.5716 7.77905C15.5716 7.77905 15.3615 8.27921 15.2814 8.35937Z" fill="#FFE15A"/>
<path id="Vector_9" d="M10.0583 13.0021C10.1384 12.922 10.2683 12.922 10.3484 13.0021C10.4285 13.0823 10.4285 13.2122 10.3484 13.2923C10.2683 13.3724 9.76807 13.5824 9.76807 13.5824C9.76807 13.5824 9.97816 13.0823 10.0583 13.0021Z" fill="#FFE15A"/>
<path id="Vector_10" d="M14.9912 13.2923C14.9111 13.2122 14.9111 13.0822 14.9912 13.0021C15.0713 12.922 15.2013 12.922 15.2814 13.0021C15.3615 13.0823 15.5715 13.5825 15.5715 13.5825C15.5715 13.5825 15.0713 13.3724 14.9912 13.2923Z" fill="#FFE15A"/>
<path id="Vector_11" d="M10.3484 8.06916C10.4285 8.14927 10.4285 8.27921 10.3484 8.35932C10.2683 8.43943 10.1383 8.43943 10.0582 8.35932C9.97811 8.27921 9.76807 7.77896 9.76807 7.77896C9.76807 7.77896 10.2683 7.98906 10.3484 8.06916Z" fill="#FFE15A"/>
<path id="Vector_12" d="M11.5247 7.37964C11.5681 7.48436 11.5184 7.60436 11.4137 7.64772C11.309 7.69107 11.189 7.64139 11.1456 7.53667C11.1022 7.432 11.0996 6.88947 11.0996 6.88947C11.0996 6.88947 11.4813 7.27492 11.5247 7.37964Z" fill="#FFE15A"/>
<path id="Vector_13" d="M13.8155 13.9818C13.7721 13.8772 13.8218 13.7571 13.9265 13.7138C14.0312 13.6704 14.1512 13.7201 14.1946 13.8248C14.238 13.9295 14.2406 14.472 14.2406 14.472C14.2406 14.472 13.8588 14.0865 13.8155 13.9818Z" fill="#FFE15A"/>
<path id="Vector_14" d="M15.9713 9.53546C15.8666 9.57882 15.7465 9.52913 15.7032 9.42441C15.6598 9.3197 15.7095 9.1997 15.8142 9.15634C15.9189 9.11298 16.4614 9.11035 16.4614 9.11035C16.4614 9.11035 16.0759 9.4921 15.9713 9.53546Z" fill="#FFE15A"/>
<path id="Vector_15" d="M9.36908 11.826C9.47375 11.7827 9.5938 11.8324 9.63716 11.9371C9.68052 12.0418 9.63083 12.1618 9.52611 12.2052C9.42144 12.2485 8.87891 12.2511 8.87891 12.2511C8.87891 12.2511 9.26436 11.8694 9.36908 11.826Z" fill="#FFE15A"/>
<path id="Vector_16" d="M14.1946 7.53667C14.1512 7.64139 14.0312 7.69107 13.9265 7.64772C13.8218 7.60436 13.7721 7.48431 13.8155 7.37964C13.8588 7.27497 14.2406 6.88947 14.2406 6.88947C14.2406 6.88947 14.238 7.43195 14.1946 7.53667Z" fill="#FFE15A"/>
<path id="Vector_17" d="M11.1456 13.8248C11.189 13.7201 11.309 13.6704 11.4137 13.7138C11.5183 13.7571 11.5681 13.8772 11.5247 13.9818C11.4814 14.0865 11.0996 14.472 11.0996 14.472C11.0996 14.472 11.1022 13.9295 11.1456 13.8248Z" fill="#FFE15A"/>
<path id="Vector_18" d="M15.8142 12.2052C15.7095 12.1618 15.6598 12.0417 15.7032 11.9371C15.7465 11.8324 15.8666 11.7827 15.9712 11.826C16.0759 11.8694 16.4614 12.2511 16.4614 12.2511C16.4614 12.2511 15.9189 12.2485 15.8142 12.2052Z" fill="#FFE15A"/>
<path id="Vector_19" d="M9.52611 9.15634C9.63078 9.1997 9.68052 9.31974 9.63716 9.42441C9.5938 9.52909 9.47375 9.57882 9.36908 9.53546C9.26436 9.4921 8.87891 9.11035 8.87891 9.11035C8.87891 9.11035 9.42139 9.11298 9.52611 9.15634Z" fill="#FFE15A"/>
<path id="Vector_20" d="M12.1907 7.21962C12.2129 7.33076 12.1407 7.43876 12.0295 7.46088C11.9184 7.48301 11.8104 7.41082 11.7883 7.29968C11.7661 7.18854 11.8694 6.65594 11.8694 6.65594C11.8694 6.65594 12.1686 7.10848 12.1907 7.21962Z" fill="#FFE15A"/>
<path id="Vector_21" d="M13.149 14.1418C13.1269 14.0307 13.1991 13.9227 13.3102 13.9006C13.4214 13.8784 13.5294 13.9506 13.5515 14.0618C13.5736 14.1729 13.4703 14.7055 13.4703 14.7055C13.4703 14.7055 13.1711 14.253 13.149 14.1418Z" fill="#FFE15A"/>
<path id="Vector_22" d="M16.131 10.2015C16.0199 10.2236 15.9119 10.1514 15.8897 10.0403C15.8676 9.92913 15.9398 9.82108 16.0509 9.79901C16.1621 9.77688 16.6947 9.88015 16.6947 9.88015C16.6947 9.88015 16.2421 10.1794 16.131 10.2015Z" fill="#FFE15A"/>
<path id="Vector_23" d="M9.20869 11.16C9.31983 11.1379 9.42788 11.2101 9.44996 11.3212C9.47208 11.4324 9.39989 11.5404 9.28875 11.5625C9.17761 11.5846 8.64502 11.4814 8.64502 11.4814C8.64502 11.4814 9.09755 11.1821 9.20869 11.16Z" fill="#FFE15A"/>
<path id="Vector_24" d="M14.7786 7.89449C14.7157 7.98871 14.5883 8.01407 14.4941 7.95111C14.3998 7.88816 14.3745 7.76075 14.4374 7.66654C14.5004 7.57232 14.95 7.26871 14.95 7.26871C14.95 7.26871 14.8416 7.80027 14.7786 7.89449Z" fill="#FFE15A"/>
<path id="Vector_25" d="M10.5615 13.467C10.6245 13.3728 10.7519 13.3474 10.8461 13.4104C10.9403 13.4733 10.9657 13.6007 10.9027 13.695C10.8398 13.7892 10.3901 14.0928 10.3901 14.0928C10.3901 14.0928 10.4986 13.5612 10.5615 13.467Z" fill="#FFE15A"/>
<path id="Vector_26" d="M15.4565 12.7892C15.3622 12.7263 15.3369 12.5989 15.3998 12.5046C15.4628 12.4104 15.5902 12.3851 15.6844 12.448C15.7786 12.511 16.0822 12.9606 16.0822 12.9606C16.0822 12.9606 15.5507 12.8522 15.4565 12.7892Z" fill="#FFE15A"/>
<path id="Vector_27" d="M9.88359 8.57225C9.97781 8.63521 10.0032 8.76261 9.94022 8.85683C9.87727 8.95105 9.74986 8.97641 9.65564 8.91346C9.56142 8.8505 9.25781 8.40088 9.25781 8.40088C9.25781 8.40088 9.78937 8.5093 9.88359 8.57225Z" fill="#FFE15A"/>
<path id="Vector_28" d="M10.9027 7.66654C10.9657 7.76075 10.9403 7.88816 10.8461 7.95111C10.7519 8.01407 10.6245 7.98871 10.5615 7.89449C10.4986 7.80027 10.3901 7.26871 10.3901 7.26871C10.3901 7.26871 10.8398 7.57227 10.9027 7.66654Z" fill="#FFE15A"/>
<path id="Vector_29" d="M14.4374 13.695C14.3745 13.6007 14.3998 13.4733 14.4941 13.4104C14.5883 13.3474 14.7157 13.3728 14.7786 13.467C14.8416 13.5612 14.95 14.0928 14.95 14.0928C14.95 14.0928 14.5004 13.7892 14.4374 13.695Z" fill="#FFE15A"/>
<path id="Vector_30" d="M15.6844 8.91346C15.5902 8.97641 15.4628 8.95105 15.3998 8.85683C15.3369 8.76261 15.3622 8.63521 15.4565 8.57225C15.5507 8.5093 16.0822 8.40088 16.0822 8.40088C16.0822 8.40088 15.7786 8.8505 15.6844 8.91346Z" fill="#FFE15A"/>
<path id="Vector_31" d="M9.65564 12.448C9.74986 12.3851 9.87727 12.4104 9.94022 12.5046C10.0032 12.5989 9.97781 12.7263 9.88359 12.7892C9.78938 12.8522 9.25781 12.9606 9.25781 12.9606C9.25781 12.9606 9.56142 12.511 9.65564 12.448Z" fill="#FFE15A"/>
<path id="Vector_32" d="M13.552 7.29968C13.5298 7.41082 13.4218 7.48301 13.3107 7.46088C13.1996 7.43876 13.1274 7.33076 13.1495 7.21962C13.1716 7.10848 13.4708 6.65594 13.4708 6.65594C13.4708 6.65594 13.574 7.18854 13.552 7.29968Z" fill="#FFE15A"/>
<path id="Vector_33" d="M11.7883 14.0618C11.8104 13.9507 11.9184 13.8785 12.0295 13.9006C12.1407 13.9227 12.2129 14.0307 12.1907 14.1419C12.1686 14.253 11.8694 14.7056 11.8694 14.7056C11.8694 14.7056 11.7661 14.173 11.7883 14.0618Z" fill="#FFE15A"/>
<path id="Vector_34" d="M16.0509 11.5625C15.9398 11.5404 15.8676 11.4324 15.8897 11.3212C15.9119 11.2101 16.0199 11.1379 16.131 11.16C16.2421 11.1821 16.6947 11.4814 16.6947 11.4814C16.6947 11.4814 16.1621 11.5846 16.0509 11.5625Z" fill="#FFE15A"/>
<path id="Vector_35" d="M9.28875 9.79901C9.39989 9.82113 9.47208 9.92913 9.44996 10.0403C9.42783 10.1514 9.31983 10.2236 9.20869 10.2015C9.09755 10.1793 8.64502 9.88015 8.64502 9.88015C8.64502 9.88015 9.17761 9.77688 9.28875 9.79901Z" fill="#FFE15A"/>
<path id="Vector_36" d="M19.1052 11.4005C19.0251 11.3668 18.9335 11.4055 18.9001 11.4851C18.9001 11.4854 18.9001 11.4854 18.9001 11.4854C18.8995 11.487 18.8965 11.4943 18.8911 11.5069C18.7725 11.7839 18.5272 12.1887 18.2794 12.5696C18.5102 11.8268 18.7211 11.0335 18.7359 10.9777C18.7579 10.8943 18.7086 10.8088 18.6254 10.7862C18.542 10.7638 18.4564 10.8122 18.4331 10.8952C18.3254 11.281 18.1052 11.7888 17.9021 12.2187C17.9393 11.7394 17.9464 11.2954 17.9468 11.2632C17.948 11.1784 17.8815 11.1082 17.7966 11.1042C17.7168 11.1066 17.6397 11.1649 17.6335 11.2497C17.4326 14.0131 14.7736 15.2492 14.5147 15.3628C14.3793 15.3763 13.7484 15.4474 13.1757 15.6463C13.1107 15.6689 13.0555 15.6914 13.0003 15.7138C12.9799 15.7062 12.9579 15.7019 12.9348 15.7033C11.1772 15.8305 9.77576 15.1094 8.76856 13.5648C8.00754 12.3976 7.76885 11.1725 7.76656 11.1603C7.75048 11.0751 7.66896 11.0202 7.58332 11.0352C7.49815 11.0515 7.44223 11.1333 7.45831 11.2185C7.46468 11.2523 7.56935 11.787 7.85782 12.4908C7.47195 11.8816 7.20307 11.1437 7.10838 10.7594C7.10651 10.7517 7.10159 10.7459 7.09868 10.7388C7.09427 10.7279 7.09052 10.7171 7.08401 10.7076C7.07937 10.701 7.07337 10.6961 7.06784 10.6903C7.05926 10.6813 7.05101 10.6724 7.0406 10.6657C7.0346 10.6618 7.02785 10.6599 7.02138 10.6568C7.00976 10.6514 6.99846 10.6461 6.98557 10.6437C6.97667 10.642 6.96748 10.6431 6.95824 10.6429C6.94887 10.6429 6.93996 10.6404 6.93035 10.6421C6.92824 10.6424 6.92665 10.6438 6.92454 10.6443C6.92252 10.6447 6.92056 10.644 6.91854 10.6445C6.91015 10.6466 6.90373 10.6519 6.89604 10.6551C6.88624 10.6594 6.87621 10.6625 6.86763 10.6685C6.8592 10.6743 6.85292 10.6819 6.84584 10.6891C6.83885 10.6963 6.83145 10.7027 6.82596 10.711C6.82038 10.7195 6.81734 10.729 6.81345 10.7384C6.80965 10.7476 6.80529 10.7562 6.80327 10.7662C6.80121 10.7764 6.80215 10.7868 6.8022 10.7974C6.8022 10.8058 6.7999 10.8139 6.80135 10.8226C6.80196 10.8262 6.80318 10.83 6.80379 10.8336V10.8342C6.80398 10.8349 6.80421 10.8358 6.8044 10.8364C6.90143 11.4082 7.13276 12.001 7.34187 12.453C7.00971 12.0762 6.73226 11.6419 6.63387 11.3848C6.63101 11.3773 6.62534 11.3721 6.62149 11.3654C6.61563 11.355 6.61057 11.3444 6.6027 11.3358C6.59717 11.3297 6.59032 11.3257 6.58399 11.3206C6.57448 11.313 6.56538 11.3052 6.55437 11.2999C6.54729 11.2966 6.53965 11.2955 6.53215 11.2932C6.52057 11.2897 6.50937 11.2858 6.49704 11.2851C6.48734 11.2845 6.47777 11.2869 6.46798 11.2882C6.45893 11.2894 6.44998 11.2882 6.44093 11.291C6.4392 11.2916 6.43803 11.2929 6.43634 11.2935C6.43465 11.294 6.43296 11.2938 6.43128 11.2944C6.42274 11.2977 6.4167 11.3039 6.40906 11.3084C6.4001 11.3138 6.39059 11.3181 6.38299 11.3249C6.37517 11.332 6.36982 11.3406 6.36368 11.3489C6.35787 11.3568 6.35135 11.3638 6.34709 11.3726C6.34259 11.3817 6.34095 11.3917 6.33832 11.4016C6.33574 11.4112 6.33232 11.4203 6.33167 11.4304C6.33096 11.4405 6.33345 11.4506 6.33481 11.4609C6.33598 11.4698 6.33476 11.4786 6.33753 11.4874C6.5082 12.038 6.91882 12.6932 7.24038 13.1547C6.9724 12.9481 6.77538 12.7247 6.71824 12.6573C6.7121 12.6499 6.70601 12.6426 6.69987 12.6352C6.64456 12.5687 6.54682 12.5592 6.47984 12.6135C6.41304 12.668 6.40263 12.7661 6.45654 12.8332C6.45945 12.8368 6.47126 12.8516 6.49085 12.8746C6.72617 13.1546 6.98267 13.416 7.21493 13.6367L6.89717 13.5012C6.8247 13.47 6.73952 13.4982 6.69982 13.5671C6.66017 13.6361 6.67807 13.7234 6.74163 13.7712C6.77257 13.7942 7.33531 14.2146 7.82252 14.4631C7.77654 14.4658 7.72263 14.4625 7.66226 14.4579C7.58857 14.4508 7.5161 14.5035 7.49815 14.5783C7.48052 14.6534 7.51976 14.73 7.59101 14.7594C7.60296 14.7643 7.75142 14.8256 7.93479 14.8908C7.89204 14.9083 7.85806 14.9441 7.84395 14.9907C7.82281 15.0603 7.85252 15.1356 7.91567 15.1718C7.93207 15.1813 8.15393 15.3085 8.42829 15.4212C8.42093 15.4325 8.41498 15.4448 8.41053 15.4583C8.38906 15.5241 8.41357 15.5965 8.47076 15.636C8.51838 15.6688 9.58399 16.392 10.8285 16.392C10.9102 16.392 10.9928 16.3889 11.0758 16.3822C11.162 16.3754 11.2265 16.2997 11.2197 16.2133C11.2128 16.1269 11.1379 16.0617 11.0507 16.0696C10.2688 16.1334 9.51565 15.8398 9.06767 15.6155C9.12682 15.6011 9.16081 15.5879 9.16924 15.5846C9.23834 15.5564 9.27818 15.4837 9.26468 15.4105C9.25118 15.3373 9.18809 15.2837 9.11346 15.2821C8.93159 15.2785 8.67973 15.1899 8.46279 15.0949C8.54477 15.0538 8.59254 15.0146 8.59685 15.0112C8.64406 14.9717 8.66398 14.9086 8.64785 14.8491C8.63163 14.79 8.58227 14.7455 8.52162 14.7357C8.45496 14.7247 8.37195 14.7033 8.2849 14.6769C8.36946 14.6282 8.40546 14.5746 8.41929 14.5473C8.44104 14.5038 8.44151 14.4529 8.42065 14.4091C8.39965 14.3653 8.35967 14.3337 8.31218 14.3236C8.27112 14.3147 8.22471 14.2997 8.17446 14.2801C8.18365 14.2709 8.19209 14.2605 8.19898 14.2486C8.23896 14.1808 8.22242 14.0938 8.16035 14.0451C8.15712 14.0427 8.03534 13.947 7.85102 13.788C7.88027 13.7772 7.9062 13.7573 7.92485 13.7304C7.96437 13.6734 7.96165 13.5971 7.91824 13.5431C7.91478 13.5388 7.79281 13.3855 7.62476 13.1526C7.68021 13.1957 7.73571 13.2397 7.79107 13.2753C7.81713 13.2919 7.84667 13.3002 7.87596 13.3002C7.91562 13.3002 7.95485 13.2852 7.98504 13.256C7.99746 13.244 8.00717 13.2302 8.01481 13.2155C8.10996 13.3172 8.20999 13.4095 8.31504 13.4883C8.32873 13.4986 8.34532 13.4983 8.36074 13.5035C8.40523 13.5781 8.45159 13.6529 8.5001 13.7276C9.45279 15.1935 10.7961 15.9787 12.4073 16.0258C12.2589 16.1159 12.0979 16.209 11.8429 16.3083C11.7872 16.3299 11.738 16.3517 11.6885 16.3735C11.6647 16.3781 11.6423 16.3868 11.6236 16.4016C11.1785 16.6077 10.9942 16.8112 10.9194 16.9536C10.8448 17.0952 10.9092 17.2404 11.0003 17.3158C11.0287 17.3391 11.0647 17.351 11.1008 17.351C11.1256 17.351 11.1505 17.3455 11.173 17.3342C11.2285 17.3066 11.2655 17.2481 11.2631 17.1865C11.2695 17.1794 11.2968 17.1567 11.3823 17.154C11.4447 17.1488 11.5758 17.1629 11.7289 17.1751C11.8744 17.1871 12.0491 17.2007 12.2348 17.2103C12.1187 17.3457 11.9836 17.5027 11.9836 17.5027C11.943 17.5499 11.9341 17.6167 11.9611 17.6727C11.9883 17.7291 12.0466 17.7641 12.1079 17.7619C12.2318 17.7576 12.3161 17.7552 12.3714 17.7539C12.4197 17.8171 12.4788 17.8422 12.517 17.852C12.6248 17.8796 12.7324 17.8364 12.8134 17.7852C12.8747 17.8293 12.936 17.848 12.9845 17.855C13.0941 17.87 13.1955 17.8382 13.2689 17.802C13.3449 17.8511 13.4194 17.8636 13.476 17.8636C13.4768 17.8636 13.4777 17.8636 13.4786 17.8636C13.601 17.863 13.7081 17.8039 13.7839 17.746C13.8509 17.7858 13.9149 17.7987 13.9644 17.8008C14.0767 17.8048 14.1699 17.7616 14.2318 17.7211C14.4529 17.7656 14.6434 17.6614 14.7694 17.5465C14.8269 17.5799 14.8816 17.5881 14.9251 17.586C15.0371 17.582 15.1224 17.514 15.1771 17.453C15.4278 17.4833 15.6076 17.4371 15.7117 17.3136C15.7684 17.2465 15.7914 17.1708 15.7977 17.1019C16.4931 17.0979 16.556 16.7182 16.5611 16.6714C16.5657 16.6287 16.5527 16.5862 16.525 16.5534C16.4974 16.5206 16.4574 16.5004 16.4147 16.4979L14.5915 16.3882C14.5152 16.3827 14.4471 16.4339 14.4294 16.5084C14.429 16.5096 14.398 16.6254 14.3007 16.7179C14.1698 16.8429 13.9591 16.9089 13.7298 16.9438C13.7307 16.9228 13.7277 16.9015 13.7197 16.8807C13.6884 16.7997 13.5974 16.7605 13.5168 16.7909C13.1404 16.9369 12.531 16.9186 12.0542 16.8854C12.1274 16.8256 12.2154 16.7665 12.2857 16.7278C12.3452 16.695 12.377 16.6279 12.3645 16.5611C12.3553 16.5126 12.3203 16.4788 12.2779 16.4571C12.4106 16.3902 12.5192 16.3255 12.6223 16.2626C12.8013 16.1529 12.9704 16.0496 13.2784 15.9427C13.8729 15.7361 14.5608 15.6733 14.5676 15.6727C14.5833 15.6715 14.5986 15.6675 14.6132 15.6617C14.6377 15.6516 16.5781 14.8387 17.4923 12.9631C17.4804 13.0197 17.4675 13.0715 17.4536 13.1169C17.4297 13.1941 17.4683 13.2766 17.5427 13.3078C17.6003 13.332 17.6658 13.3195 17.71 13.2784C17.6523 13.4307 17.6 13.5505 17.5574 13.6213C17.5139 13.6933 17.5349 13.7868 17.6049 13.8334C17.6213 13.8441 17.6389 13.8514 17.657 13.8557C17.5862 13.9593 17.5145 14.0573 17.443 14.1471C17.3953 14.2069 17.3981 14.2921 17.4479 14.3485C17.325 14.4771 17.2161 14.5832 17.1334 14.6506C17.0793 14.6944 17.0616 14.7676 17.0865 14.8302C17.0067 14.8758 16.9411 14.908 16.8956 14.9217C16.8192 14.9447 16.7724 15.0216 16.7868 15.1001C16.7943 15.1414 16.8176 15.1764 16.8497 15.1994C16.7538 15.2251 16.6489 15.25 16.5349 15.2726C16.4706 15.2854 16.4212 15.3366 16.4106 15.4013C16.4002 15.4659 16.4308 15.5303 16.4876 15.5628C16.4926 15.5655 16.5462 15.5959 16.6281 15.6308C16.3246 15.753 15.7827 15.9127 14.8935 16.0003C14.8074 16.0089 14.7442 16.0858 14.7529 16.1719C14.7613 16.2581 14.8357 16.3178 14.9245 16.3129C16.6125 16.1459 17.1338 15.7234 17.1551 15.7053C17.2038 15.6645 17.2231 15.598 17.2038 15.5374C17.1909 15.4972 17.1627 15.4647 17.1266 15.446C17.6659 15.2763 17.8974 15.0884 17.9095 15.0784C17.9686 15.0293 17.9835 14.9444 17.9446 14.878C17.9053 14.8114 17.8237 14.7827 17.7524 14.8114C17.7324 14.8191 17.7004 14.8271 17.6599 14.835C18.0218 14.5871 18.4061 14.292 18.575 14.1603C18.6048 14.1382 18.6317 14.117 18.6555 14.0971C18.7211 14.0419 18.7302 13.9445 18.6762 13.878C18.6224 13.8118 18.5245 13.8008 18.4574 13.8538C18.4329 13.8732 18.4075 13.8931 18.3811 13.9136C18.3031 13.9715 18.2033 14.0371 18.0946 14.1045C18.5053 13.6382 18.9188 13.1326 19.0369 12.9873C19.0477 12.9741 19.0582 12.961 19.069 12.9478C19.1232 12.8804 19.1126 12.7817 19.0452 12.7275C18.9776 12.6723 18.8788 12.6837 18.8247 12.7508L18.8244 12.7511L18.8243 12.7514C18.8214 12.7548 18.808 12.7714 18.7857 12.7989C18.6619 12.95 18.5316 13.0961 18.4031 13.2328C18.8215 12.4744 19.1383 11.728 19.1848 11.6173C19.1865 11.6134 19.188 11.6094 19.1897 11.6054C19.223 11.5256 19.1852 11.4336 19.1052 11.4005ZM11.7519 16.6891L11.7948 16.6946C11.7422 16.7437 11.6995 16.7988 11.6655 16.8556C11.5909 16.8496 11.5234 16.8444 11.4704 16.842C11.5434 16.7943 11.6374 16.7426 11.7519 16.6891Z" fill="#FFE15A"/>
</g>
</g>
</g>
<defs>
<clipPath id="clip0_1340_4532">
<rect width="24" height="24" rx="12" fill="white"/>
</clipPath>
</defs>
</svg>
