<svg viewBox="0 0 40 41" fill="none" xmlns="http://www.w3.org/2000/svg">
  <path
    d="M20 2.92188C10.2891 2.92188 2.42188 10.7891 2.42188 20.5C2.42188 30.2109 10.2891 38.0781 20 38.0781C29.7109 38.0781 37.5781 30.2109 37.5781 20.5C37.5781 10.7891 29.7109 2.92188 20 2.92188ZM15.0234 30.2656H10.3516V17.2031H15.0234V30.2656ZM12.6875 15.4062C11.3984 15.4062 10.3516 14.3594 10.3516 13.0703C10.3516 11.7812 11.3984 10.7344 12.6875 10.7344C13.9766 10.7344 15.0234 11.7812 15.0234 13.0703C15.0234 14.3594 13.9766 15.4062 12.6875 15.4062ZM29.6562 30.2656H25.8047C25.8047 30.2656 25.8281 22.6484 25.8438 22.4141C25.8672 22.1797 25.6328 20.2578 23.6641 20.2578C21.6953 20.2578 21.0781 21.6641 21.0781 22.7344V30.2656H17.4297V17.2031H21.0391V19.0156C21.0391 19.0156 21.5938 17.1875 24.9297 17.1875C27.6797 17.1875 29.6484 18.2578 29.6484 21.2031C29.6562 22.8359 29.6562 30.2656 29.6562 30.2656Z"
    fill="currentColor" />
</svg>