<svg width="34" height="34" viewBox="0 0 34 34" fill="none" xmlns="http://www.w3.org/2000/svg">
<path fill-rule="evenodd" clip-rule="evenodd" d="M17.3535 2.83301C23.7979 2.83301 29.041 8.11576 29.041 14.6098C29.041 22.5927 19.895 30.458 17.3535 30.458C14.812 30.458 5.66602 22.5927 5.66602 14.6098C5.66602 8.11576 10.9091 2.83301 17.3535 2.83301ZM17.3535 4.95801C12.0807 4.95801 7.79102 9.28876 7.79102 14.6098C7.79102 21.38 15.7583 27.976 17.3535 28.3273C18.9487 27.9746 26.916 21.3786 26.916 14.6098C26.916 9.28876 22.6263 4.95801 17.3535 4.95801ZM17.3549 9.91634C19.8936 9.91634 21.9591 11.9818 21.9591 14.5219C21.9591 17.0606 19.8936 19.1247 17.3549 19.1247C14.8163 19.1247 12.7508 17.0606 12.7508 14.5219C12.7508 11.9818 14.8163 9.91634 17.3549 9.91634ZM17.3549 12.0413C15.9878 12.0413 14.8758 13.1534 14.8758 14.5219C14.8758 15.889 15.9878 16.9997 17.3549 16.9997C18.722 16.9997 19.8341 15.889 19.8341 14.5219C19.8341 13.1534 18.722 12.0413 17.3549 12.0413Z" fill="#FECC01" stroke="#FECC01"/>
</svg>
