<svg width="64" height="64" viewBox="0 0 64 64" fill="none" xmlns="http://www.w3.org/2000/svg">
  <path
    d="M26.3966 18.0798C26.7159 17.9734 27.0611 17.9734 27.3804 18.0798L36.2215 21.0269L43.0152 18.7623C45.0297 18.0908 47.11 19.5902 47.11 21.7136V40.2114C47.11 41.5504 46.2531 42.7393 44.9828 43.1627L36.7134 45.9192C36.3941 46.0256 36.0489 46.0256 35.7296 45.9192L26.8885 42.9721L20.0948 45.2367C18.0803 45.9082 16 44.4088 16 42.2854V23.7876C16 22.4486 16.8569 21.2597 18.1272 20.8363L26.3966 18.0798ZM28.444 40.2114L34.666 42.2854V23.7876L28.444 21.7136V40.2114ZM25.333 21.7136L19.111 23.7876V42.2854L25.333 40.2114V21.7136ZM37.777 23.7876V42.2854L43.999 40.2114V21.7136L37.777 23.7876Z"
    fill="#FFC107" />
</svg>