<svg viewBox="0 0 12 12" fill="none" xmlns="http://www.w3.org/2000/svg">
  <g id="map 1" clip-path="url(#clip0_1165_2241)">
    <g id="Group">
      <g id="Group_2">
        <path id="Vector"
          d="M11.5719 3.05248e-08C11.5054 -2.50807e-05 11.4397 0.0154434 11.3802 0.0452002L8.13251 1.66947L4.46014 0.0370642C4.45414 0.0345028 4.44728 0.0340508 4.44086 0.0314895C4.42433 0.0253121 4.40743 0.0201643 4.39028 0.0160712C4.37323 0.0114759 4.3559 0.00788496 4.33843 0.00534872C4.30362 0.00248604 4.26864 0.00248604 4.23386 0.00534872C4.21639 0.00788496 4.19906 0.0114759 4.18201 0.0160712C4.16486 0.0201643 4.14796 0.0253121 4.13143 0.0314895C4.12501 0.0340508 4.11815 0.0344777 4.11215 0.0370642L0.255066 1.75133C0.10023 1.82009 0.000463175 1.97362 0.000488286 2.14302V11.5715C0.00056362 11.7164 0.0739135 11.8516 0.195477 11.9306C0.317065 12.0097 0.47042 12.022 0.603032 11.9632L4.28612 10.326L7.96921 11.9632C7.97564 11.9657 7.98249 11.9632 7.98892 11.967C8.09268 12.0134 8.21178 12.0108 8.31333 11.9597C8.32019 11.9568 8.3279 11.9597 8.33475 11.955L11.7633 10.2408C11.9086 10.1682 12.0003 10.0196 12.0003 9.85718V0.428774C12.0004 0.192076 11.8086 0.000100475 11.5719 3.05248e-08ZM3.85757 9.57863L0.85761 10.9119V2.4216L3.85757 1.08832V9.57863ZM7.71466 10.9119L4.71469 9.57863V1.08832L7.71466 2.42158V10.9119ZM11.1432 9.59234L8.57178 10.878V2.40787L11.1432 1.12217V9.59234Z"
          fill="currentColor" />
      </g>
    </g>
  </g>
  <defs>
    <clipPath id="clip0_1165_2241">
      <rect width="12" height="12" fill="white" />
    </clipPath>
  </defs>
</svg>