<svg width="50" height="50" viewBox="0 0 50 50" fill="none" xmlns="http://www.w3.org/2000/svg">
<g filter="url(#filter0_b_1165_2220)">
<circle cx="25" cy="25" r="25" fill="#C4C4C4" fill-opacity="0.25"/>
</g>
<path d="M34.7398 24.2151L29.015 13.3779C28.8795 13.1216 28.6152 12.9618 28.3253 12.9609C28.3245 12.9609 28.3237 12.9609 28.323 12.9609C28.0339 12.9609 27.7697 13.119 27.6332 13.3739L22.3875 23.1652C22.3009 23.3268 22.3167 23.5242 22.4279 23.67L23.7119 25.3539C23.854 25.5402 24.0697 25.6522 24.3038 25.6614C24.5372 25.6711 24.7617 25.5756 24.9177 25.4009L26.9478 23.1291L30.8938 27.7876C31.0412 27.9616 31.2564 28.0624 31.4843 28.0644C31.4865 28.0644 31.4888 28.0644 31.491 28.0644C31.7165 28.0644 31.9306 27.9674 32.0793 27.7977L34.4181 25.1311C34.4315 25.1157 34.444 25.0995 34.4553 25.0825L34.7152 24.6937C34.8107 24.5508 34.8202 24.3671 34.7398 24.2151ZM33.6941 24.5369L31.493 27.0467L27.548 22.3894C27.4017 22.2167 27.1878 22.1158 26.9613 22.1128C26.9578 22.1127 26.9544 22.1127 26.9509 22.1127C26.7282 22.1127 26.516 22.2075 26.3674 22.3739L24.3436 24.6386L23.3548 23.3419L28.3221 14.0703L33.7819 24.4056L33.6941 24.5369Z" fill="white"/>
<path d="M40.9084 35.891L37.2336 28.9349C37.1129 28.7064 36.8298 28.619 36.6012 28.7398C36.3726 28.8605 36.2853 29.1436 36.406 29.3722L39.9619 36.1031H27.4955C27.4808 36.0305 22.0639 25.7514 22.0639 25.7514L22.869 24.2486L23.7118 25.3539C23.8539 25.5403 24.0696 25.6523 24.3037 25.6614C24.5371 25.6711 24.7616 25.5756 24.9176 25.4009L26.9477 23.1292L30.8938 27.7877C31.0411 27.9616 31.2563 28.0625 31.4842 28.0644C31.4864 28.0644 31.4887 28.0644 31.4909 28.0644C31.7164 28.0644 31.9305 27.9675 32.0793 27.7978C32.0809 27.7961 32.0824 27.7943 32.0839 27.7924L34.2351 25.2631L35.1095 26.9183C35.2303 27.1469 35.5134 27.2343 35.7419 27.1135C35.9705 26.9928 36.0579 26.7096 35.9371 26.4811L29.0148 13.3777C28.8793 13.1213 28.6151 12.9616 28.3251 12.9607H28.3228C28.0338 12.9607 27.7696 13.1188 27.633 13.3738L22.7186 22.5473L22.3875 23.1652C22.3875 23.1653 22.3874 23.1653 22.3874 23.1654L21.5367 24.7534L19.0073 19.9654C18.9056 19.7731 18.7316 19.6352 18.5285 19.5779C18.4608 19.5588 18.3898 19.5486 18.3173 19.5484C18.3165 19.5484 18.3158 19.5484 18.315 19.5484C18.3053 19.5484 18.2958 19.549 18.2861 19.5494C18.2782 19.5496 18.2702 19.5497 18.2623 19.5502C18.2551 19.5507 18.2481 19.5516 18.2409 19.5523C18.2303 19.5533 18.2197 19.5541 18.2092 19.5556C18.1998 19.5568 18.1904 19.5587 18.1811 19.5603C18.1733 19.5617 18.1654 19.5628 18.1576 19.5644C17.9325 19.6104 17.7365 19.7538 17.6252 19.9615L15.9121 23.1594L13.0307 28.5379C13.0302 28.5388 13.0298 28.5398 13.0293 28.5408L9.09369 35.8871C8.96256 36.1319 8.96944 36.4203 9.11206 36.6586C9.25475 36.8969 9.50575 37.0392 9.7835 37.0392H40.2164C40.4933 37.0392 40.7438 36.8976 40.8867 36.6606C41.0297 36.4235 41.0378 36.1358 40.9084 35.891ZM23.4965 23.0773L28.322 14.0704L33.7641 24.3721L31.4911 27.0446L27.5479 22.3894C27.4015 22.2166 27.1876 22.1158 26.9612 22.1128C26.9577 22.1128 26.9543 22.1128 26.9508 22.1128C26.7281 22.1128 26.5159 22.2076 26.3673 22.3739L24.3435 24.6386L23.3548 23.3419L23.4965 23.0773ZM10.0399 36.103L13.5841 29.4874L14.9504 30.6319C15.0978 30.7553 15.2761 30.8159 15.4533 30.8159C15.6683 30.8159 15.8817 30.7268 16.0369 30.5529L17.6041 28.7964L18.6134 29.7979C18.7969 29.98 19.0933 29.9788 19.2754 29.7954C19.4574 29.6119 19.4563 29.3155 19.2728 29.1334L18.1485 28.0179C17.9968 27.8674 17.7879 27.7852 17.5735 27.7913C17.3598 27.7978 17.1556 27.8929 17.0134 28.0525L15.4375 29.8187L14.0356 28.6445L18.3142 20.6579L23.8353 31.1092L22.5024 32.3376L21.2831 31.1278C21.0997 30.9458 20.8033 30.9469 20.6212 31.1304C20.4391 31.3139 20.4403 31.6103 20.6238 31.7923L21.9473 33.1055C22.1 33.2569 22.2991 33.3331 22.4985 33.3331C22.6883 33.3331 22.8784 33.2641 23.0289 33.1254L24.2879 31.965L26.4739 36.103H10.0399Z" fill="white"/>
<defs>
<filter id="filter0_b_1165_2220" x="-10" y="-10" width="70" height="70" filterUnits="userSpaceOnUse" color-interpolation-filters="sRGB">
<feFlood flood-opacity="0" result="BackgroundImageFix"/>
<feGaussianBlur in="BackgroundImageFix" stdDeviation="5"/>
<feComposite in2="SourceAlpha" operator="in" result="effect1_backgroundBlur_1165_2220"/>
<feBlend mode="normal" in="SourceGraphic" in2="effect1_backgroundBlur_1165_2220" result="shape"/>
</filter>
</defs>
</svg>
