<svg viewBox="0 0 40 41" fill="none" xmlns="http://www.w3.org/2000/svg">
  <path d="M17.5156 16.8047V20.5469V24.2969L20.5469 22.4219L23.5781 20.5469L20.5469 18.6797L17.5156 16.8047Z"
    fill="currentColor" />
  <path
    d="M20 2.92188C10.2891 2.92188 2.42188 10.7891 2.42188 20.5C2.42188 30.2109 10.2891 38.0781 20 38.0781C29.7109 38.0781 37.5781 30.2109 37.5781 20.5C37.5781 10.7891 29.7109 2.92188 20 2.92188ZM29.7656 23.7578C29.7656 25.7109 28.1719 27.3047 26.2188 27.3047H13.7812C11.8281 27.3047 10.2344 25.7109 10.2344 23.7578V17.25C10.2344 15.2969 11.8281 13.7031 13.7812 13.7031H26.2188C28.1719 13.7031 29.7656 15.2969 29.7656 17.25V23.7578Z"
    fill="currentColor" />
</svg>